<svg width="954" height="997" viewBox="0 0 954 997" fill="none" xmlns="http://www.w3.org/2000/svg">
<path d="M165.878 293.135C162.492 303.514 165.164 321.08 165.164 321.08L172.372 331.339C172.372 331.339 191.091 312.623 193.735 299.946C196.554 286.436 197.626 269.321 183.845 268.578C171.979 267.938 169.563 281.838 165.878 293.135Z" fill="#67A951"/>
<path d="M209.168 326.316C205.782 336.695 208.454 354.261 208.454 354.261L215.663 364.52C215.663 364.52 234.381 345.804 237.026 333.128C239.845 319.617 240.916 302.502 227.135 301.759C215.27 301.119 212.854 315.019 209.168 326.316Z" fill="#67A951"/>
<path d="M147.374 337.559C158.188 336.067 175.003 341.811 175.003 341.811L183.821 350.724C183.821 350.724 162.083 365.828 149.138 366.183C135.342 366.562 118.308 364.583 120.02 350.888C121.494 339.097 135.602 339.184 147.374 337.559Z" fill="#67A951"/>
<path d="M152.478 321.541C144.448 309.94 135.264 289.779 135.264 289.779L144.666 283.92C144.666 283.92 160.329 313.877 174.821 329.582C193.467 349.789 232.243 370.32 232.243 370.32L226.245 379.762C226.245 379.762 174.346 348.212 166.157 338.75L165.992 338.56C157.96 329.279 157.331 328.552 152.478 321.541Z" fill="#76B45E"/>
<path d="M154.862 262.654L111.334 279.02C111.334 279.02 127.678 291.973 138.367 288.62C149.83 285.024 154.862 262.654 154.862 262.654Z" fill="#76B45E" stroke="#70B356"/>
<path d="M70.7047 252.08C72.9008 241.942 81.7139 235.964 92.0804 236.314C99.2801 236.557 103.161 239.927 108.449 244.82C108.627 244.984 108.8 245.155 108.973 245.329C108.74 244.826 108.532 244.319 108.353 243.809C105.965 237.012 104.415 232.111 107.053 225.408C110.852 215.756 119.842 210.046 130.017 212.06C138.322 213.704 142.538 220.022 144.726 227.832C146.609 223.107 148.804 219.526 153.739 216.702C162.742 211.552 173.327 212.723 180.003 220.662C186.874 228.832 184.027 238.731 178.67 247.965C173.389 257.068 156.07 262.624 156.028 262.638L153.475 262.815L110.546 279.11L110.2 278.201C105.91 278.805 92.1127 280.282 84.634 275.601C75.585 269.937 68.4446 262.513 70.7047 252.08Z" fill="#FFA24D"/>
<path d="M167.51 304.585C167.273 309.916 168.807 318.188 168.807 318.188C168.807 318.188 171.869 300.837 175.281 290.116C177.648 282.681 182.406 271.45 182.406 271.45C182.406 271.45 176.051 278.374 173.254 283.622C169.261 291.113 167.887 296.105 167.51 304.585Z" fill="#4A8D33"/>
<path d="M209.887 338.605C209.65 343.937 211.184 352.209 211.184 352.209C211.184 352.209 214.246 334.857 217.658 324.137C220.025 316.702 224.783 305.471 224.783 305.471C224.783 305.471 218.428 312.394 215.631 317.643C211.638 325.133 210.264 330.125 209.887 338.605Z" fill="#4A8D33"/>
<path d="M156.509 342.166C161.759 343.124 169.481 346.463 169.481 346.463C169.481 346.463 151.884 345.58 140.672 346.517C132.897 347.167 120.888 349.302 120.888 349.302C120.888 349.302 129.053 344.65 134.793 343.093C142.985 340.871 148.158 340.644 156.509 342.166Z" fill="#4A8D33"/>
<path d="M144.27 286.034L136.704 289.748L145.88 308.83L144.27 286.034Z" fill="#4A8D33" stroke="#4A8D33"/>
<path d="M124.874 286.019L138.374 269.983L114.57 279.473L124.874 286.019Z" fill="#4A8D33"/>
<path d="M113.655 279.838L114.57 279.473M114.57 279.473L138.374 269.983L124.874 286.019L114.57 279.473Z" stroke="#4A8D33"/>
<path d="M83.5591 272.078C90.3256 277.695 105.899 274.911 105.899 274.911L90.0494 264.842C88.0261 263.557 76.5568 251.064 76.5568 251.064C76.5568 251.064 76.9032 266.553 83.5591 272.078Z" fill="#FF7B01"/>
<path d="M108.437 234.508C108.047 243.293 119.672 254.023 119.672 254.023L118.124 235.31C117.926 232.921 120.955 216.235 120.955 216.235C120.955 216.235 108.82 225.866 108.437 234.508Z" fill="#FF7B01"/>
<path d="M150.805 222.512C145.403 229.451 148.673 244.929 148.673 244.929L158.241 228.773C159.462 226.71 171.702 218.266 171.702 218.266C171.702 218.266 156.119 215.686 150.805 222.512Z" fill="#FF7B01"/>
<path d="M140.453 263.731C145.467 258.981 144.729 246.568 144.729 246.568C144.729 246.568 140.502 254.614 136.803 259.045C133.505 262.996 127.25 268.122 127.25 268.122C127.25 268.122 136.508 267.467 140.453 263.731Z" fill="#FF7B01"/>
<path d="M169.2 255.096C175.112 251.524 177.036 239.24 177.036 239.24C177.036 239.24 172.423 248.689 167.132 252.281C163.085 255.028 155.365 256.573 155.365 256.573C155.365 256.573 164.55 257.907 169.2 255.096Z" fill="#FF7B01"/>
<path d="M258.854 142.987C258.883 143.017 273.564 158.417 274.84 170.899C275.82 180.473 269.41 193.201 266.182 198.91C266.401 203.103 266.758 209.18 267.291 216.105C270.846 209.793 276.573 201.306 283.245 197.727C294.279 191.808 315.218 195.387 315.272 195.397C315.272 195.397 307.488 216.395 296.046 222.517C288.047 226.796 274.905 225.599 268.001 224.555C268.974 235.248 270.339 246.856 272.207 256.286C272.469 257.612 272.722 258.901 272.969 260.157C275.524 253.389 279.86 244.24 285.853 239.718C295.844 232.179 317.06 232.502 317.139 232.503C317.117 232.608 312.635 254.472 302.292 262.258C294.957 267.781 281.559 268.567 274.648 268.575C276.743 278.841 278.778 287.304 282.587 297.366C285.153 290.623 289.457 281.635 295.38 277.166C305.377 269.623 326.613 269.95 326.665 269.951C326.665 269.951 322.187 291.901 311.819 299.706C305.124 304.746 293.379 305.841 286.125 306C286.189 306.145 286.252 306.291 286.317 306.437C289.632 313.943 294.669 322.383 299.77 330.129C302.222 323.28 306.758 313.02 313.222 308.143C323.231 300.591 344.508 300.928 344.508 300.928C344.498 300.977 340.018 322.887 329.662 330.683C323.098 335.625 311.678 336.772 304.397 336.965C311.831 347.656 318.292 355.703 318.301 355.715L305.763 361.528C305.763 361.528 301.315 354.91 295.735 345.696C292.282 351.635 284.818 362.956 276.297 366.545C264.352 371.577 243.169 364.429 243.123 364.414C243.123 364.414 253.535 345.847 265.094 340.993C273.283 337.554 285.901 339.379 292.817 340.807C287.899 332.448 282.58 322.745 278.807 314.062C274.537 319.682 266.113 329.459 257.536 331.955C245.089 335.578 224.863 326.037 224.821 326.017C224.821 326.017 237.297 308.777 249.34 305.287C257.66 302.875 269.59 305.922 276.397 308.128C273.562 300.792 271.478 294.488 269.788 288.29C264.074 291.663 251.516 298.231 242.041 297.097C229.15 295.553 214.231 278.825 214.231 278.825C214.231 278.825 232.456 267.854 244.909 269.359C253.259 270.368 262.733 277.435 268.227 282.142C266.466 274.669 265.101 266.908 263.519 257.261C263.023 254.234 262.593 250.978 262.22 247.603C256.927 251.339 244.661 259.135 234.961 258.73C222.017 258.19 205.893 242.727 205.827 242.664C205.908 242.607 223.177 230.313 235.679 230.849C245.057 231.251 256.414 239.072 261.77 243.185C260.961 234.567 260.483 225.489 260.203 217.608C253.461 218.972 240.084 220.899 231.746 216.923C220.019 211.332 211.223 190.712 211.223 190.712C211.223 190.712 232.005 186.16 243.328 191.575C250.05 194.789 256.088 202.782 259.955 208.888C259.834 203.339 259.813 199.074 259.81 197.047C255 191.568 248.027 182.349 247.177 174.13C245.841 161.2 258.854 142.987 258.854 142.987Z" fill="#0F3C39"/>
<path d="M389.725 178.408C389.731 178.449 393.158 199.448 402.342 207.996C409.387 214.552 423.405 217.118 429.906 217.987C433.118 220.691 437.749 224.643 442.951 229.245C435.772 228.272 425.548 227.72 418.668 230.883C407.292 236.113 397.515 254.971 397.49 255.02C397.49 255.02 418.934 261.479 430.718 256.047C438.957 252.248 445.93 241.044 449.262 234.909C457.203 242.135 465.637 250.226 472.032 257.405C472.931 258.414 473.806 259.393 474.659 260.348C467.72 258.303 457.807 256.242 450.585 258.294C438.546 261.714 426.005 278.83 425.958 278.894C426.055 278.94 446.196 288.554 458.646 285.003C467.475 282.483 476.184 272.272 480.36 266.765C487.284 274.629 492.806 281.357 498.533 290.465C491.607 288.444 481.842 286.455 474.705 288.482C462.659 291.905 450.109 309.04 450.078 309.082C450.078 309.082 470.286 318.751 482.766 315.191C490.824 312.892 498.782 304.185 503.285 298.495C503.362 298.634 503.44 298.772 503.518 298.912C507.505 306.084 511.197 315.192 514.298 323.934C507.356 321.758 496.437 319.187 488.648 321.399C476.587 324.826 464.02 342 464.02 342C464.066 342.021 484.242 351.665 496.708 348.108C504.609 345.854 512.412 337.439 516.959 331.748C521.001 344.126 523.521 354.133 523.525 354.148L535.725 347.655C535.725 347.655 533.13 340.116 529.148 330.106C535.967 330.935 549.499 331.812 557.501 327.181C568.721 320.689 575.799 299.483 575.814 299.437C575.814 299.437 554.725 296.54 543.88 302.831C536.198 307.288 530.042 318.453 527.008 324.829C523.308 315.865 518.779 305.769 514.13 297.522C521.188 297.507 534.067 296.686 541.232 291.352C551.629 283.61 556.222 261.723 556.231 261.677C556.231 261.677 534.955 261.228 524.907 268.727C517.965 273.908 513.197 285.261 510.851 292.02C506.71 285.334 502.939 279.869 499.016 274.782C505.153 272.26 517.967 266.206 522.778 257.965C529.323 246.753 524.982 224.763 524.982 224.763C524.982 224.763 505.237 232.68 498.925 243.52C494.693 250.788 494.614 262.607 495.054 269.829C490.156 263.915 484.79 258.145 478.05 251.064C475.935 248.842 473.598 246.535 471.131 244.202C477.304 242.234 490.921 237.154 496.45 229.173C503.827 218.524 501.221 196.336 501.211 196.246C501.117 196.276 480.895 202.633 473.78 212.927C468.443 220.649 467.83 234.425 467.879 241.178C461.494 235.334 454.542 229.476 448.425 224.499C453.58 219.944 463.187 210.438 465.046 201.39C467.661 188.664 456.521 169.21 456.521 169.21C456.521 169.21 440.354 183.038 437.842 195.336C436.35 202.635 439.083 212.273 441.62 219.04C437.267 215.597 433.878 213.007 432.263 211.782C430.796 204.641 427.649 193.518 421.607 187.882C412.101 179.016 389.725 178.408 389.725 178.408Z" fill="#3F8328"/>
<path d="M726.34 258.234C716.339 258.532 702.045 271.077 702.045 271.077C702.045 271.077 717.51 275.394 728.024 276.19C735.833 276.782 747.158 277.569 750.192 269.652C753.774 260.303 736.347 257.936 726.34 258.234Z" fill="#4573B9"/>
<path d="M692.959 250.927C698.398 259.326 696.2 278.217 696.2 278.217C696.2 278.217 683.859 267.945 677.228 259.747C672.304 253.658 665.22 244.787 670.01 237.791C675.666 229.53 687.518 242.524 692.959 250.927Z" fill="#4573B9"/>
<path d="M675.135 271.684C682.114 278.855 683.658 297.81 683.658 297.81C683.658 297.81 669.544 290.155 661.436 283.414C655.414 278.408 646.729 271.097 650.057 263.298C653.985 254.089 668.152 264.51 675.135 271.684Z" fill="#4573B9"/>
<path d="M658.096 291.954C665.075 299.125 666.62 318.08 666.62 318.08C666.62 318.08 652.506 310.425 644.398 303.685C638.376 298.678 629.691 291.367 633.018 283.568C636.946 274.36 651.114 284.78 658.096 291.954Z" fill="#4573B9"/>
<path d="M634.872 316.727C641.851 323.897 643.396 342.853 643.396 342.853C643.396 342.853 629.281 335.198 621.174 328.457C615.152 323.451 606.467 316.14 609.794 308.341C613.722 299.132 627.889 309.553 634.872 316.727Z" fill="#4573B9"/>
<path d="M707.881 280.863C697.879 281.161 683.585 293.706 683.585 293.706C683.585 293.706 699.05 298.022 709.564 298.819C717.373 299.41 728.698 300.198 731.732 292.28C735.314 282.932 717.887 280.565 707.881 280.863Z" fill="#4573B9"/>
<path d="M697.848 309.853C688.38 306.615 670.588 313.333 670.588 313.333C670.588 313.333 683.549 322.812 693.111 327.254C700.213 330.553 710.538 335.272 716.163 328.927C722.803 321.435 707.321 313.092 697.848 309.853Z" fill="#4573B9"/>
<path d="M675.331 330.679C665.863 327.441 648.071 334.159 648.071 334.159C648.071 334.159 661.032 343.638 670.594 348.08C677.696 351.379 688.021 356.098 693.645 349.753C700.286 342.261 684.804 333.918 675.331 330.679Z" fill="#4573B9"/>
<path d="M658.465 353.84C650.571 347.691 631.561 348.239 631.561 348.239C631.561 348.239 640.721 361.426 648.311 368.744C653.949 374.179 662.17 382.008 669.556 377.844C678.277 372.928 666.363 359.991 658.465 353.84Z" fill="#4573B9"/>
<path d="M726.702 242.699C722.18 251.626 706.083 259.044 706.083 259.044C706.083 259.044 703.735 243.157 707.484 233.303C710.269 225.983 717.316 215.759 725.772 216.379C735.757 217.111 731.227 233.769 726.702 242.699Z" fill="#4573B9"/>
<path d="M696.694 283.796C702.807 273.778 709.981 255.189 709.981 255.189L706.377 253.756C706.377 253.756 696.786 271.737 690.39 281.668C678.945 299.438 670.943 308.483 656.178 323.607C643.578 336.512 621.497 354.108 621.497 354.108L627.38 358.907C627.38 358.907 648.645 340.57 661.005 327.545C676.182 311.551 685.209 302.617 696.694 283.796Z" fill="#4573B9"/>
<path d="M232.454 270.73C239.483 270.73 245.182 276.429 245.182 283.458C245.182 283.996 245.147 284.526 245.082 285.047C246.907 284.035 249.007 283.458 251.242 283.458C258.271 283.458 263.969 289.156 263.97 296.184C263.97 299.023 263.039 301.644 261.469 303.761C263.039 305.877 263.97 308.498 263.97 311.337C263.97 318.366 258.271 324.063 251.242 324.063C247.854 324.063 244.777 322.737 242.496 320.578C241.305 326.373 236.177 330.73 230.03 330.73C223.001 330.73 217.303 325.032 217.303 318.003C217.303 316.901 217.443 315.832 217.706 314.812C211.638 313.844 207 308.587 207 302.246C207 295.217 212.698 289.518 219.728 289.518C220.266 289.518 220.796 289.551 221.316 289.616C220.305 287.791 219.728 285.692 219.728 283.458C219.728 276.429 225.425 270.731 232.454 270.73Z" fill="#D2EECD"/>
<ellipse cx="227.303" cy="299.518" rx="4.54545" ry="4.54545" fill="#FF7500"/>
<circle cx="240.03" cy="296.488" r="4.54545" fill="#FF7500"/>
<ellipse cx="236.394" cy="308.609" rx="4.54545" ry="4.54546" fill="#FF7500"/>
<path d="M400.728 237.73C404.242 237.73 407.091 240.579 407.091 244.094C407.091 244.363 407.072 244.629 407.039 244.89C407.952 244.383 409.003 244.094 410.121 244.094C413.636 244.094 416.484 246.943 416.484 250.458C416.484 251.877 416.02 253.187 415.234 254.245C416.02 255.303 416.484 256.614 416.484 258.033C416.484 261.548 413.636 264.397 410.121 264.397C408.426 264.397 406.887 263.733 405.747 262.653C405.152 265.551 402.589 267.73 399.516 267.73C396.001 267.73 393.152 264.881 393.151 261.367C393.151 260.816 393.221 260.28 393.353 259.77C390.319 259.286 388 256.658 388 253.488C388 249.974 390.849 247.124 394.363 247.124C394.633 247.124 394.899 247.142 395.159 247.175C394.653 246.262 394.363 245.211 394.363 244.094C394.363 240.579 397.213 237.73 400.728 237.73Z" fill="#FFD84F"/>
<ellipse cx="398.152" cy="252.124" rx="2.27273" ry="2.27273" fill="#FF7500"/>
<circle cx="404.515" cy="250.609" r="2.27273" fill="#FF7500"/>
<ellipse cx="402.697" cy="256.67" rx="2.27273" ry="2.27273" fill="#FF7500"/>
<path d="M326.682 264.856C338.487 277.879 365.447 287.73 365.447 287.73C365.447 287.73 368.669 257.15 362.208 239.35C352.585 212.839 311.702 187.73 311.702 187.73C311.702 187.73 306.075 242.123 326.682 264.856Z" fill="#5ABB73"/>
<path d="M314.637 220.726C313.649 210.259 314.637 193.803 314.637 193.803C314.637 193.803 320.477 208.542 321.621 218.5C322.905 229.677 319.698 247.245 319.698 247.245C319.698 247.245 315.628 231.223 314.637 220.726Z" fill="#4D9760"/>
<path d="M363.726 256.253C362.714 247.548 356.742 235.504 356.742 235.504C356.742 235.504 356.619 249.827 358.463 257.771C360.842 268.02 363.726 284.998 363.726 284.998C363.726 284.998 364.996 267.176 363.726 256.253Z" fill="#4D9760"/>
<path d="M606.193 339.029C588.93 335.72 566.493 317.819 566.493 317.819C566.493 317.819 590.935 299.16 609.498 295.419C637.145 289.848 679.856 311.704 679.856 311.704C679.856 311.704 636.327 344.803 606.193 339.029Z" fill="#5ABB73"/>
<path d="M650.148 326.361C659.602 321.76 673.142 312.356 673.142 312.356C673.142 312.356 657.516 315.035 648.417 319.238C638.203 323.955 624.867 335.832 624.867 335.832C624.867 335.832 640.668 330.974 650.148 326.361Z" fill="#4D9760"/>
<path d="M594.272 302.915C602.232 299.252 615.626 298.087 615.626 298.087C615.626 298.087 603.457 305.642 595.713 308.2C585.723 311.499 569.722 317.867 569.722 317.867C569.722 317.867 584.282 307.512 594.272 302.915Z" fill="#4D9760"/>
<path d="M247.026 311.061C252.046 327.907 272.103 348.439 272.103 348.439C272.103 348.439 288.221 322.252 290.086 303.408C292.862 275.343 266.841 235.034 266.841 235.034C266.841 235.034 238.264 281.656 247.026 311.061Z" fill="#36B0B0"/>
<path d="M255.231 266.059C258.863 256.192 266.864 241.779 266.864 241.779C266.864 241.779 265.762 257.594 262.492 267.068C258.82 277.703 248.337 292.161 248.337 292.161C248.337 292.161 251.59 275.953 255.231 266.059Z" fill="#2A9595"/>
<path d="M284.152 319.308C287 311.021 286.818 297.578 286.818 297.578C286.818 297.578 280.519 310.442 278.749 318.403C276.466 328.674 271.732 345.231 271.732 345.231C271.732 345.231 280.577 329.708 284.152 319.308Z" fill="#2A9595"/>
<path d="M626.454 249.73C633.483 249.73 639.182 255.429 639.182 262.458C639.182 262.996 639.147 263.526 639.082 264.047C640.907 263.035 643.007 262.458 645.242 262.458C652.271 262.458 657.969 268.156 657.97 275.184C657.97 278.023 657.039 280.644 655.469 282.761C657.039 284.877 657.97 287.498 657.97 290.337C657.97 297.366 652.271 303.063 645.242 303.063C641.854 303.063 638.777 301.737 636.496 299.578C635.305 305.373 630.177 309.73 624.03 309.73C617.001 309.73 611.303 304.032 611.303 297.003C611.303 295.901 611.443 294.832 611.706 293.812C605.638 292.844 601 287.587 601 281.246C601 274.217 606.698 268.518 613.728 268.518C614.266 268.518 614.796 268.551 615.316 268.616C614.305 266.791 613.728 264.692 613.728 262.458C613.728 255.429 619.425 249.731 626.454 249.73Z" fill="#F78BCB"/>
<ellipse cx="621.303" cy="278.518" rx="4.54545" ry="4.54545" fill="#E60F36"/>
<circle cx="634.03" cy="275.488" r="4.54545" fill="#E60F36"/>
<ellipse cx="630.394" cy="287.609" rx="4.54545" ry="4.54546" fill="#E60F36"/>
<path d="M498.853 231.521C506.871 233.179 517.315 241.457 517.315 241.457L521.312 249.969C521.312 249.969 502.159 255.191 492.92 252.195C483.074 249.002 471.531 243.33 476.176 234.08C480.176 226.116 490.126 229.716 498.853 231.521Z" fill="#67A951"/>
<path d="M504.347 272.058C512.365 273.716 522.809 281.994 522.809 281.994L526.806 290.506C526.806 290.506 507.652 295.728 498.414 292.732C488.568 289.54 477.024 283.867 481.67 274.617C485.669 266.653 495.619 270.253 504.347 272.058Z" fill="#67A951"/>
<path d="M534.666 236.006C529.67 242.492 527.152 255.579 527.152 255.579L529.674 264.638C529.674 264.638 547.599 256.105 552.648 247.809C558.029 238.966 563.08 227.138 553.526 223.156C545.3 219.727 540.105 228.946 534.666 236.006Z" fill="#67A951"/>
<path d="M522.336 233.368C517.772 223.822 508.062 210.338 508.062 210.338L500.747 214.279C500.747 214.279 514.424 235.628 519.256 250.909C525.474 270.571 524.411 303.461 524.411 303.461L532.792 303.069C532.792 303.069 531.564 257.533 528.451 248.68L528.388 248.502C525.335 239.818 525.095 239.137 522.336 233.368Z" fill="#76B45E"/>
<path d="M483.106 213.004L509.963 190.752C509.963 190.752 512.314 206.215 506.153 211.927C499.545 218.052 483.106 213.004 483.106 213.004Z" fill="#76B45E" stroke="#70B356"/>
<path d="M507.542 154.27C500.124 151.927 492.951 155.44 489.321 162.32C486.799 167.098 487.549 170.88 488.767 176.144C488.808 176.321 488.855 176.497 488.904 176.673C488.663 176.335 488.41 176.011 488.145 175.705C484.609 171.62 481.993 168.788 476.647 168.011C468.948 166.893 461.885 170.62 459.409 177.995C457.388 184.015 459.934 189.111 464.205 193.443C460.427 192.91 457.278 193.007 453.603 195.17C446.898 199.116 443.722 206.444 446.406 213.745C449.169 221.259 456.674 223.09 464.68 223.039C472.562 222.989 482.609 213.804 482.661 213.756L483.724 212.164L510.314 190.272L509.851 189.709C511.84 187.141 517.938 178.707 517.674 172.094C517.354 164.094 515.177 156.682 507.542 154.27Z" fill="#98D0F0"/>
<path d="M505.701 236.845C509.261 238.674 514.076 242.752 514.076 242.752C514.076 242.752 501.638 238.288 493.388 236.52C487.666 235.294 478.582 234.212 478.582 234.212C478.582 234.212 485.455 232.651 489.913 232.783C496.277 232.971 500.039 233.934 505.701 236.845Z" fill="#4A8D33"/>
<path d="M512.081 277.1C515.641 278.93 520.456 283.008 520.456 283.008C520.456 283.008 508.018 278.543 499.768 276.775C494.046 275.549 484.962 274.467 484.962 274.467C484.962 274.467 491.835 272.906 496.294 273.038C502.657 273.226 506.419 274.189 512.081 277.1Z" fill="#4A8D33"/>
<path d="M534.266 243.669C532.936 247.444 532.236 253.715 532.236 253.715C532.236 253.715 538.211 241.928 542.994 234.976C546.31 230.155 552.17 223.131 552.17 223.131C552.17 223.131 546.102 226.716 542.952 229.874C538.456 234.381 536.383 237.665 534.266 243.669Z" fill="#4A8D33"/>
<path d="M502.272 214.808L507.506 211.264L516.515 224.341L502.272 214.808Z" fill="#4A8D33" stroke="#4A8D33"/>
<path d="M509.48 202.173L494.014 204.995L509.053 193.027L509.48 202.173Z" fill="#4A8D33"/>
<path d="M509.631 192.567L509.053 193.027M509.053 193.027L494.014 204.995L509.48 202.173L509.053 193.027Z" stroke="#4A8D33"/>
<path d="M515.78 170.083C516.919 176.579 509.31 185.683 509.31 185.683L508.653 171.616C508.569 169.82 504.703 157.702 504.703 157.702C504.703 157.702 514.66 163.693 515.78 170.083Z" fill="#6AAFD7"/>
<path d="M482.058 172.299C487.923 175.315 490.583 186.878 490.583 186.878L478.974 178.905C477.492 177.887 465.5 173.649 465.5 173.649C465.5 173.649 476.288 169.332 482.058 172.299Z" fill="#6AAFD7"/>
<path d="M458.478 195.421C465.006 194.486 473.868 202.376 473.868 202.376L459.787 202.593C457.989 202.621 447.936 207.448 447.936 207.448C447.936 207.448 452.056 196.341 458.478 195.421Z" fill="#6AAFD7"/>
<path d="M489.17 204.022C484.21 205.519 476.403 200.419 476.403 200.419C476.403 200.419 483.215 200.66 487.477 199.901C491.277 199.225 496.943 197.059 496.943 197.059C496.943 197.059 493.071 202.844 489.17 204.022Z" fill="#6AAFD7"/>
<path d="M472.848 219.527C468.322 222.047 459.607 218.727 459.607 218.727C459.607 218.727 467.477 219.24 471.785 217.132C475.08 215.52 478.959 211.068 478.959 211.068C478.959 211.068 476.409 217.544 472.848 219.527Z" fill="#6AAFD7"/>
<path d="M553.569 280.856C541.763 293.879 514.804 303.73 514.804 303.73C514.804 303.73 511.582 273.15 518.042 255.35C527.665 228.839 568.548 203.73 568.548 203.73C568.548 203.73 574.175 258.123 553.569 280.856Z" fill="#5ABB73"/>
<path d="M565.613 236.726C566.602 226.259 565.613 209.803 565.613 209.803C565.613 209.803 559.773 224.542 558.63 234.5C557.346 245.677 560.553 263.245 560.553 263.245C560.553 263.245 564.622 247.223 565.613 236.726Z" fill="#4D9760"/>
<path d="M516.524 272.253C517.536 263.548 523.508 251.504 523.508 251.504C523.508 251.504 523.631 265.827 521.787 273.771C519.409 284.02 516.524 300.998 516.524 300.998C516.524 300.998 515.254 283.176 516.524 272.253Z" fill="#4D9760"/>
<path d="M382.721 219.73C384.103 219.73 385.224 220.851 385.225 222.233C385.225 222.597 385.145 222.943 385.005 223.255C385.143 223.565 385.221 223.907 385.221 224.267V237.88C385.221 239.26 384.101 240.38 382.721 240.38C381.34 240.38 380.221 239.26 380.221 237.88V224.267C380.221 223.907 380.299 223.564 380.437 223.255C380.297 222.943 380.218 222.597 380.218 222.233C380.218 220.851 381.338 219.731 382.721 219.73Z" fill="#D8602D"/>
<path d="M360.128 224.804C361.303 224.076 362.846 224.438 363.574 225.613C363.766 225.923 363.88 226.259 363.925 226.598C364.206 226.788 364.452 227.038 364.642 227.345L371.809 238.918C372.536 240.092 372.173 241.633 370.999 242.36C369.826 243.086 368.285 242.724 367.558 241.55L360.391 229.977C360.201 229.671 360.088 229.338 360.042 229.003C359.759 228.811 359.509 228.559 359.318 228.249C358.59 227.074 358.953 225.532 360.128 224.804Z" fill="#D8602D"/>
<path d="M389.918 228.492L382.721 236.941L373.646 228.492L368.796 238.506L360.503 236.941C360.503 236.941 367.857 268.547 372.708 273.241C377.755 278.126 383.49 282.331 389.918 279.499C394.954 277.281 397.46 273.304 397.898 270.111C398.993 262.132 390.933 252.853 389.918 243.043C389.334 237.391 389.918 228.492 389.918 228.492Z" fill="#F1692F"/>
<rect x="366.878" y="246.159" width="2.5034" height="4.06803" rx="1.2517" transform="rotate(-16.9293 366.878 246.159)" fill="#D8602D"/>
<rect x="368.64" y="253.004" width="2.5034" height="4.06803" rx="1.2517" transform="rotate(-16.9293 368.64 253.004)" fill="#D8602D"/>
<rect x="372.708" y="247.997" width="2.5034" height="4.06803" rx="1.2517" transform="rotate(-16.9293 372.708 247.997)" fill="#D8602D"/>
<rect x="374.898" y="237.357" width="2.5034" height="4.06803" rx="1.2517" transform="rotate(-16.9293 374.898 237.357)" fill="#D8602D"/>
<rect x="382.721" y="246.119" width="2.5034" height="4.06803" rx="1.2517" transform="rotate(-16.9293 382.721 246.119)" fill="#D8602D"/>
<rect x="379.279" y="253.004" width="2.5034" height="4.06803" rx="1.2517" transform="rotate(-16.9293 379.279 253.004)" fill="#D8602D"/>
<rect x="371.143" y="261.453" width="2.5034" height="4.06803" rx="1.2517" transform="rotate(-16.9293 371.143 261.453)" fill="#D8602D"/>
<rect x="377.088" y="261.453" width="2.5034" height="4.06803" rx="1.2517" transform="rotate(-16.9293 377.088 261.453)" fill="#D8602D"/>
<rect x="384.599" y="257.072" width="2.5034" height="4.06803" rx="1.2517" transform="rotate(-16.9293 384.599 257.072)" fill="#D8602D"/>
<rect x="386.789" y="250.5" width="2.5034" height="4.06803" rx="1.2517" transform="rotate(-16.9293 386.789 250.5)" fill="#D8602D"/>
<rect x="384.912" y="266.146" width="2.5034" height="4.06803" rx="1.2517" transform="rotate(-16.9293 384.912 266.146)" fill="#D8602D"/>
<rect x="391.483" y="263.643" width="2.5034" height="4.06803" rx="1.2517" transform="rotate(-16.9293 391.483 263.643)" fill="#D8602D"/>
<rect x="375.837" y="270.214" width="2.5034" height="4.06803" rx="1.2517" transform="rotate(-16.9293 375.837 270.214)" fill="#D8602D"/>
<rect x="383.347" y="275.221" width="2.5034" height="4.06803" rx="1.2517" transform="rotate(-16.9293 383.347 275.221)" fill="#D8602D"/>
<path d="M572.273 318.14C572.273 318.14 589.62 259.984 591.743 221.572C593.415 191.319 587.257 144.118 587.257 144.118" stroke="#754D19" stroke-width="3"/>
<path d="M586.749 146.752L586.212 147.595L587.204 148.227L587.668 147.146L586.749 146.752ZM586.749 146.752C587.668 147.146 587.669 147.146 587.669 147.146L587.669 147.145C587.669 147.144 587.669 147.143 587.67 147.141C587.671 147.139 587.673 147.135 587.675 147.131C587.679 147.121 587.685 147.107 587.692 147.09C587.707 147.055 587.728 147.004 587.756 146.937C587.811 146.804 587.89 146.608 587.989 146.357C588.187 145.857 588.463 145.134 588.779 144.238C589.409 142.447 590.202 139.958 590.845 137.17C591.488 134.385 591.988 131.275 592.022 128.249C592.055 125.231 591.626 122.224 590.348 119.697C588.663 116.366 586.729 112.412 584.246 109.636C582.993 108.234 581.55 107.074 579.864 106.449C578.156 105.816 576.27 105.759 574.202 106.457C570.419 107.733 568.681 110.516 567.935 113.761C567.208 116.921 567.391 120.654 567.473 124.005C567.548 127.086 568.825 130.105 570.605 132.852C572.39 135.607 574.727 138.162 577.028 140.333C579.332 142.508 581.624 144.32 583.338 145.588C584.195 146.222 584.91 146.721 585.412 147.063C585.663 147.234 585.862 147.366 585.998 147.456C586.066 147.5 586.119 147.535 586.155 147.558C586.173 147.57 586.187 147.579 586.196 147.585C586.201 147.588 586.205 147.59 586.208 147.592C586.209 147.593 586.21 147.594 586.211 147.595L586.212 147.594C586.215 147.59 586.255 147.527 586.749 146.752Z" fill="#DD6200" stroke="#C77521" stroke-width="2"/>
<path d="M620.109 137.86C622.091 139.18 623.297 140.843 623.889 142.734C624.473 144.603 624.436 146.624 624.061 148.65C623.318 152.667 621.182 157.002 619.412 160.719C618.082 163.514 615.765 165.903 613.12 167.901C610.468 169.904 607.428 171.559 604.573 172.873C601.714 174.189 599.015 175.174 597.033 175.83C596.041 176.158 595.226 176.405 594.657 176.569C594.373 176.652 594.151 176.714 593.998 176.755C593.922 176.776 593.862 176.792 593.821 176.803C593.801 176.808 593.786 176.812 593.775 176.815C593.77 176.816 593.766 176.818 593.763 176.818C593.761 176.819 593.76 176.819 593.759 176.819L593.758 176.819L592.619 177.114L592.512 175.943L593.508 175.851L592.512 175.941L592.512 175.94C592.512 175.939 592.511 175.938 592.511 175.937C592.511 175.933 592.511 175.928 592.51 175.921C592.509 175.909 592.507 175.891 592.505 175.868C592.501 175.821 592.496 175.752 592.489 175.663C592.475 175.485 592.457 175.223 592.437 174.89C592.396 174.223 592.35 173.265 592.325 172.092C592.275 169.748 592.31 166.535 592.652 163.068C592.994 159.605 593.645 155.857 594.839 152.455C596.031 149.063 597.792 145.937 600.405 143.812C603.275 141.479 606.392 138.816 609.621 137.327C612.928 135.802 616.485 135.448 620.109 137.86Z" fill="#DD6200" stroke="#C77521" stroke-width="2"/>
<path d="M548.765 149.871C547.377 151.806 546.836 153.788 546.951 155.766C547.065 157.721 547.814 159.598 548.881 161.361C550.996 164.857 554.526 168.157 557.495 171.009C559.728 173.153 562.739 174.569 565.919 175.503C569.108 176.44 572.537 176.913 575.672 177.134C578.812 177.354 581.685 177.322 583.771 177.235C584.815 177.191 585.664 177.134 586.254 177.087C586.549 177.064 586.779 177.043 586.937 177.028C587.016 177.021 587.077 177.015 587.119 177.01C587.139 177.008 587.155 177.006 587.166 177.005C587.172 177.005 587.176 177.004 587.179 177.004C587.181 177.004 587.182 177.004 587.183 177.004L587.184 177.003L588.354 176.876L588.04 175.743L587.076 176.01L588.039 175.742L588.039 175.74C588.038 175.739 588.039 175.738 588.038 175.737C588.037 175.733 588.035 175.728 588.034 175.722C588.03 175.71 588.026 175.693 588.02 175.671C588.007 175.626 587.988 175.559 587.962 175.473C587.912 175.301 587.837 175.051 587.738 174.732C587.54 174.094 587.245 173.181 586.853 172.075C586.072 169.864 584.903 166.871 583.358 163.749C581.815 160.63 579.881 157.353 577.562 154.594C575.248 151.841 572.496 149.539 569.3 148.475C565.791 147.307 561.934 145.917 558.387 145.666C554.754 145.408 551.302 146.334 548.765 149.871Z" fill="#DD6200" stroke="#C77521" stroke-width="2"/>
<path d="M636.054 174.058C641.668 177.083 642.495 184.012 641.251 190.698C639.991 197.471 636.524 204.6 632.723 208.796C627.45 214.617 618.07 218.002 610.204 219.943C606.239 220.921 602.596 221.546 599.945 221.927C598.619 222.117 597.539 222.247 596.789 222.329C596.414 222.37 596.121 222.399 595.921 222.418C595.821 222.428 595.744 222.434 595.692 222.439C595.666 222.441 595.646 222.443 595.633 222.444C595.626 222.445 595.62 222.446 595.617 222.446C595.615 222.446 595.613 222.446 595.612 222.446L595.611 222.446L595.528 221.45L595.61 222.447L594.196 222.562L594.562 221.191L594.563 221.186C594.564 221.183 594.566 221.177 594.568 221.171C594.571 221.157 594.577 221.137 594.584 221.111C594.598 221.059 594.619 220.982 594.646 220.883C594.702 220.683 594.784 220.389 594.893 220.013C595.109 219.259 595.431 218.17 595.851 216.827C596.692 214.143 597.929 210.437 599.515 206.353C602.672 198.224 607.263 188.458 612.938 182.326C616.34 178.65 619.816 175.363 623.578 173.605C627.418 171.811 631.531 171.622 636.054 174.058Z" fill="#DD6200" stroke="#C77521" stroke-width="2"/>
<path d="M634.776 235.517C639.771 239.482 639.366 246.449 636.965 252.811C634.532 259.257 629.866 265.665 625.386 269.127C619.171 273.929 609.341 275.611 601.256 276.137C597.181 276.402 593.485 276.376 590.808 276.285C589.469 276.239 588.384 276.177 587.631 276.125C587.255 276.1 586.961 276.077 586.761 276.061C586.661 276.053 586.584 276.045 586.532 276.041C586.506 276.038 586.486 276.037 586.472 276.036C586.465 276.035 586.46 276.035 586.456 276.035C586.454 276.034 586.453 276.034 586.452 276.034L586.45 276.034L586.544 275.038L586.45 276.034L585.037 275.899L585.639 274.614L585.641 274.609C585.642 274.606 585.645 274.601 585.648 274.595C585.654 274.582 585.663 274.563 585.674 274.538C585.697 274.49 585.731 274.418 585.776 274.325C585.866 274.138 585.999 273.863 586.172 273.511C586.518 272.807 587.026 271.792 587.676 270.545C588.976 268.05 590.846 264.619 593.125 260.879C597.664 253.431 603.902 244.626 610.567 239.588C614.563 236.568 618.562 233.945 622.575 232.876C626.671 231.785 630.753 232.323 634.776 235.517Z" fill="#DD6200" stroke="#C77521" stroke-width="2"/>
<path d="M626.566 291.902C629.184 293.831 630.36 296.599 630.519 299.673C630.677 302.716 629.845 306.085 628.448 309.38C625.657 315.961 620.476 322.555 615.594 326.164C608.83 331.165 598.278 333.143 589.589 333.903C585.214 334.286 581.253 334.365 578.387 334.348C576.953 334.34 575.791 334.307 574.986 334.277C574.584 334.261 574.27 334.247 574.057 334.236C573.95 334.23 573.867 334.226 573.812 334.223C573.784 334.221 573.763 334.22 573.749 334.219C573.741 334.219 573.735 334.218 573.731 334.218C573.729 334.218 573.728 334.218 573.727 334.218L573.726 334.218L573.788 333.219L573.725 334.218L572.195 334.12L572.9 332.759L572.901 332.758C572.901 332.757 572.902 332.756 572.903 332.754C572.905 332.751 572.907 332.746 572.91 332.74C572.917 332.727 572.928 332.708 572.941 332.683C572.967 332.633 573.005 332.559 573.056 332.463C573.157 332.272 573.307 331.991 573.503 331.631C573.894 330.91 574.468 329.869 575.201 328.589C576.666 326.031 578.768 322.512 581.319 318.668C586.401 311.008 593.334 301.945 600.606 296.679C604.98 293.512 609.326 290.764 613.629 289.579C618.002 288.375 622.338 288.786 626.566 291.902Z" fill="#DD6200" stroke="#C77521" stroke-width="2"/>
<path d="M541.925 187.324C537.808 192.062 538.675 198.513 541.562 204.147C544.465 209.809 549.568 215.017 554.626 217.609C561.495 221.129 569.842 222.586 576.411 223.174C579.706 223.468 582.578 223.545 584.628 223.549C585.652 223.552 586.472 223.536 587.038 223.519C587.321 223.51 587.541 223.501 587.69 223.494C587.765 223.491 587.823 223.489 587.862 223.487C587.881 223.486 587.897 223.485 587.907 223.484C587.912 223.484 587.916 223.484 587.919 223.484C587.92 223.483 587.921 223.483 587.922 223.483L587.923 223.483L587.867 222.485L587.924 223.483L589.188 223.411L588.825 222.198L588.819 222.175C588.814 222.161 588.808 222.14 588.8 222.113C588.783 222.058 588.758 221.977 588.725 221.872C588.659 221.663 588.561 221.356 588.432 220.965C588.174 220.182 587.789 219.059 587.282 217.69C586.268 214.952 584.762 211.223 582.795 207.261C580.828 203.301 578.389 199.088 575.506 195.393C572.628 191.706 569.266 188.482 565.435 186.571C560.965 184.34 556.798 182.564 552.901 182.331C548.9 182.092 545.265 183.48 541.925 187.324Z" fill="#DD6200" stroke="#C77521" stroke-width="2"/>
<path d="M581.556 274.937L582.554 274.887L582.61 275.985L581.511 275.936L581.556 274.937ZM581.556 274.937L581.51 275.937L581.509 275.936C581.508 275.936 581.507 275.936 581.505 275.936C581.502 275.936 581.497 275.936 581.491 275.936C581.479 275.935 581.461 275.934 581.439 275.932C581.394 275.93 581.327 275.927 581.241 275.922C581.068 275.912 580.816 275.896 580.492 275.872C579.844 275.823 578.908 275.742 577.753 275.613C575.445 275.355 572.251 274.902 568.708 274.121C561.665 272.57 553.073 269.688 547.395 264.325C543.345 260.499 539.184 254.838 537.248 249.289C536.278 246.511 535.841 243.687 536.324 241.105C536.813 238.487 538.239 236.183 540.855 234.498C545.211 231.694 550.463 231.592 555.474 233.002C560.485 234.412 565.367 237.36 569.137 240.846C575.336 246.577 578.671 255.144 580.465 262.162C581.366 265.688 581.888 268.861 582.184 271.153C582.333 272.3 582.424 273.229 582.48 273.873C582.507 274.195 582.527 274.446 582.538 274.617C582.544 274.703 582.547 274.77 582.55 274.815C582.551 274.837 582.552 274.855 582.553 274.867C582.553 274.873 582.553 274.878 582.553 274.881C582.553 274.883 582.554 274.884 582.554 274.885L582.554 274.886L581.556 274.937Z" fill="#DD6200" stroke="#C77521" stroke-width="2"/>
<path d="M563.843 319.013L564.842 318.963L564.897 320.06L563.799 320.012L563.843 319.013ZM563.843 319.013L563.797 320.012L563.796 320.012C563.795 320.012 563.794 320.012 563.792 320.012C563.789 320.011 563.784 320.011 563.778 320.011C563.766 320.01 563.749 320.009 563.726 320.008C563.681 320.005 563.614 320.002 563.528 319.997C563.355 319.987 563.103 319.971 562.779 319.947C562.131 319.899 561.195 319.818 560.04 319.689C557.732 319.431 554.538 318.977 550.996 318.197C543.953 316.645 535.36 313.763 529.683 308.4C525.632 304.574 521.471 298.913 519.535 293.364C518.566 290.586 518.128 287.762 518.611 285.18C519.1 282.562 520.526 280.258 523.142 278.574C527.498 275.769 532.75 275.667 537.761 277.077C542.772 278.488 547.654 281.435 551.424 284.921C557.623 290.653 560.958 299.22 562.752 306.238C563.653 309.763 564.175 312.936 564.471 315.229C564.62 316.376 564.712 317.304 564.767 317.948C564.794 318.27 564.814 318.521 564.825 318.693C564.831 318.779 564.834 318.845 564.837 318.89C564.838 318.913 564.839 318.93 564.84 318.942C564.84 318.948 564.84 318.953 564.84 318.957C564.84 318.958 564.842 318.959 564.842 318.96L564.841 318.961L563.843 319.013Z" fill="#DD6200" stroke="#C77521" stroke-width="2"/>
<circle cx="276" cy="365.73" r="55" fill="#FFC0C0"/>
<circle cx="507" cy="306.73" r="55" fill="#FFC0C0"/>
<circle cx="358" cy="379.73" r="50" fill="#FFC0C0"/>
<circle cx="421" cy="306.73" r="50" fill="#FFC0C0"/>
<circle cx="562" cy="311.73" r="50" fill="#FFC0C0"/>
<circle cx="435" cy="356.73" r="60" fill="#FFC0C0"/>
<circle cx="529" cy="370.73" r="50" fill="#FFC0C0"/>
<circle cx="572" cy="345.73" r="65" fill="#FFC0C0"/>
<circle cx="326" cy="310.73" r="65" fill="#FFC0C0"/>
<path d="M294.5 261.23C274.5 272.458 272 298.73 272 298.73C272 298.73 278.788 277.668 298 266.73C321.5 253.352 350.5 258.23 350.5 258.23C350.5 258.23 323 245.23 294.5 261.23Z" fill="#FE9191"/>
<path d="M529.793 329.766C505.061 330.024 483.085 353.861 483.085 353.861C483.085 353.861 504.58 337.26 528.452 336.866C557.653 336.385 577.445 356.265 577.445 356.265C577.445 356.265 565.035 329.398 529.793 329.766Z" fill="#FE9191"/>
<path d="M399.5 316.97C386.769 324.117 385.081 342.75 385.081 342.75C385.081 342.75 393.271 329.192 405.5 322.23C420.458 313.714 435.049 316.97 435.049 316.97C435.049 316.97 417.641 306.786 399.5 316.97Z" fill="#FE9191"/>
<path d="M477.124 273.449C472.235 280.173 470.12 286.573 470.12 286.573C470.12 286.573 471.127 279.806 477.124 273.449C481.672 267.194 488.62 260.658 498.5 258.73C512.818 255.936 527.953 261.24 535.719 264.659C539.381 265.973 541 267.23 541 267.23C541 267.23 539.029 266.116 535.719 264.659C529.572 262.452 517.667 260.084 498 263.23C487.787 264.864 481.266 269.059 477.124 273.449Z" fill="#FE9191"/>
<path d="M440.046 265.974C429.066 262.788 418.033 270.951 418.033 270.951C418.033 270.951 428.461 266.093 439.068 269.102C452.042 272.782 459.744 284.686 459.744 284.686C459.744 284.686 455.693 270.515 440.046 265.974Z" fill="#FE9191"/>
<path d="M298.046 320.974C287.066 317.788 276.033 325.951 276.033 325.951C276.033 325.951 286.461 321.093 297.068 324.102C310.042 327.782 317.744 339.686 317.744 339.686C317.744 339.686 313.693 325.515 298.046 320.974Z" fill="#FE9191"/>
<path d="M620.975 307.692C612.5 300.019 599.006 302.525 599.006 302.525C599.006 302.525 610.509 302.725 618.726 310.075C628.778 319.065 630.488 333.14 630.488 333.14C630.488 333.14 633.053 318.626 620.975 307.692Z" fill="#FE9191"/>
<path d="M172 922.23C165.002 950.552 166.5 996.73 166.5 996.73H801C801 996.73 794.563 935.163 791.5 906.23C788.516 878.049 771.317 855.268 753.5 833.23C734.5 809.73 715.396 801.739 682.5 782.23C645.186 760.102 617.845 754.037 575 747.23C505.769 736.232 464.723 743.181 395.5 754.23C359.162 760.03 338.144 763.009 304 776.73C278.144 787.121 262.654 792.692 241 810.23C224.138 823.887 215.864 833.399 203.5 851.23C186.216 876.158 179.276 892.782 172 922.23Z" fill="#96DCDC"/>
<path d="M574.5 749.655L400.5 753.73V694.644L574.5 619.767V749.655ZM637.5 465.73C655.449 465.73 670 490.802 670 521.73C670 552.658 655.449 577.73 637.5 577.73C619.551 577.73 605 552.658 605 521.73C605 490.802 619.551 465.73 637.5 465.73Z" fill="#FEC993"/>
<path d="M437 706.73C547.457 706.73 637 617.187 637 506.73C637 449.396 612.875 397.697 574.222 361.23H299.778C261.125 397.697 237 449.396 237 506.73C237 617.187 326.543 706.73 437 706.73Z" fill="#F8BF85"/>
<path d="M427.5 690.73C532.71 690.73 618 605.464 618 500.282C618 445.686 595.021 396.456 558.204 361.73H296.796C259.979 396.456 237 445.686 237 500.282C237 557.225 258.877 614.831 298.5 649.73C332.066 679.296 379.248 690.73 427.5 690.73Z" fill="#FEC993"/>
<path d="M495 709.23L563.5 672.73V718.23L495 709.23Z" fill="#F2B87C"/>
<path d="M650.5 481.23L644 491.23L664.5 533.23L650.5 481.23Z" fill="#F2B87C"/>
<path d="M448 424.23C475.549 415.243 500.5 380.73 500.5 380.73C500.5 380.73 554.703 425.148 576 474.23C587.562 500.878 567.506 547.497 596.5 545.73C620.285 544.281 631.255 521.588 639.5 499.23C642.925 489.943 642 479.129 642 469.23C642 426.23 636.5 359.73 636.5 359.73H225C225 359.73 193.12 418.635 202 455.73C207.881 480.298 217.862 528.093 242 517.73C257.41 511.115 258.5 489.23 258.5 474.23C258.5 454.607 250.382 438.825 263.5 424.23C284.495 400.871 307.539 465.155 337.5 455.73C361.663 448.129 356.009 414.86 380 406.73C405.97 397.93 421.931 432.735 448 424.23Z" fill="#36B0B0"/>
<path d="M447.5 403.23C475.049 394.243 501 368.73 501 368.73C501 368.73 555.265 397.648 576.562 446.73C588.124 473.378 573.506 530.497 602.5 528.73C626.285 527.281 641.5 487.56 641.5 463.73C641.5 453.73 640 430.629 640 420.73C640 374.73 637.062 359.73 637.062 359.73H225.5C225.5 359.73 211.5 376.73 202.562 417.73C197.181 442.413 212.362 506.093 236.5 495.73C251.909 489.115 248.5 462.23 248.5 447.23C248.5 427.607 246.448 412.506 264 403.73C287 392.23 303.039 450.155 333 440.73C357.163 433.129 356.009 401.36 380 393.23C405.97 384.43 421.431 411.735 447.5 403.23Z" fill="#52C9C9"/>
<circle cx="650" cy="572.73" r="20" fill="#36B0B0"/>
<circle cx="655" cy="564.73" r="5" fill="white"/>
<circle cx="661" cy="571.73" r="2" fill="white"/>
<circle cx="882.685" cy="533.416" r="45" transform="rotate(-43.4584 882.685 533.416)" stroke="url(#paint0_linear_2303_515)" stroke-width="10"/>
<circle cx="101.685" cy="866.416" r="45" transform="rotate(-43.4584 101.685 866.416)" stroke="url(#paint1_linear_2303_515)" stroke-width="10"/>
<circle cx="829.274" cy="28.2741" r="15" transform="rotate(-43.4584 829.274 28.2741)" stroke="url(#paint2_linear_2303_515)" stroke-width="10"/>
<circle cx="739.274" cy="536.005" r="15" transform="rotate(-43.4584 739.274 536.005)" stroke="url(#paint3_linear_2303_515)" stroke-width="10"/>
<circle cx="400.274" cy="76.0045" r="15" transform="rotate(-43.4584 400.274 76.0045)" stroke="url(#paint4_linear_2303_515)" stroke-width="10"/>
<circle cx="28.274" cy="517.005" r="15" transform="rotate(-43.4584 28.274 517.005)" stroke="url(#paint5_linear_2303_515)" stroke-width="10"/>
<path d="M451 530.23C451 530.23 460 519.5 473 519.73C486 519.96 495 530.23 495 530.23" stroke="#913400" stroke-width="4" stroke-linecap="round"/>
<path d="M304 530.234C304 530.234 313 519.504 326 519.734C339 519.964 348 530.234 348 530.234" stroke="#913400" stroke-width="4" stroke-linecap="round"/>
<path d="M374 609.73C374 609.73 387.295 626.075 406.5 625.725C425.705 625.375 439 609.73 439 609.73" stroke="#FF2618" stroke-width="4" stroke-linecap="round"/>
<ellipse cx="501.5" cy="569.73" rx="35.5" ry="31" fill="#FFC0C0" fill-opacity="0.6"/>
<defs>
<linearGradient id="paint0_linear_2303_515" x1="882.685" y1="483.416" x2="882.685" y2="583.416" gradientUnits="userSpaceOnUse">
<stop stop-color="#F5AA6D"/>
<stop offset="1" stop-color="#FFC0C0"/>
</linearGradient>
<linearGradient id="paint1_linear_2303_515" x1="101.685" y1="816.416" x2="101.685" y2="916.416" gradientUnits="userSpaceOnUse">
<stop stop-color="#F5AA6D"/>
<stop offset="1" stop-color="#FFC0C0"/>
</linearGradient>
<linearGradient id="paint2_linear_2303_515" x1="829.274" y1="8.27412" x2="829.274" y2="48.2741" gradientUnits="userSpaceOnUse">
<stop stop-color="#F5AA6D"/>
<stop offset="1" stop-color="#FFC0C0"/>
</linearGradient>
<linearGradient id="paint3_linear_2303_515" x1="739.274" y1="516.005" x2="739.274" y2="556.005" gradientUnits="userSpaceOnUse">
<stop stop-color="#F5AA6D"/>
<stop offset="1" stop-color="#FFC0C0"/>
</linearGradient>
<linearGradient id="paint4_linear_2303_515" x1="400.274" y1="56.0045" x2="400.274" y2="96.0045" gradientUnits="userSpaceOnUse">
<stop stop-color="#F5AA6D"/>
<stop offset="1" stop-color="#FFC0C0"/>
</linearGradient>
<linearGradient id="paint5_linear_2303_515" x1="28.274" y1="497.005" x2="28.274" y2="537.005" gradientUnits="userSpaceOnUse">
<stop stop-color="#F5AA6D"/>
<stop offset="1" stop-color="#FFC0C0"/>
</linearGradient>
</defs>
</svg>
