<svg width="150" height="136" viewBox="0 0 150 136" fill="none" xmlns="http://www.w3.org/2000/svg">
<path d="M79.0501 10.1388C78.5817 10.2584 78.6507 10.6842 78.6214 11.0411C78.5189 12.2699 78.8284 13.3548 78.8514 14.4883C79.0772 25.9999 79.048 38.937 78.4248 50.3917C78.3307 52.1316 78.4792 53.8349 78.0024 55.5625L77.3688 55.453L76.9506 56.4547L77.7933 56.5744V57.1827L77.1702 56.9799L76.5449 58.8029C75.9929 57.5578 76.7143 56.4121 76.7499 55.1549L76.1267 55.964L75.811 54.5507C75.2986 54.9684 75.5663 55.6233 75.4095 56.1931C75.3007 56.5825 74.6818 56.5784 74.8679 57.1827L74.2447 56.1708C73.8913 57.3692 73.3058 59.3767 71.9445 59.616L71.9403 58.1966L71.3172 58.8029C70.8864 57.7647 71.2022 56.8096 71.313 55.7633C70.7714 55.6598 70.9492 55.8768 70.7902 56.1587C70.4933 56.6859 70.4222 57.3368 70.1629 57.789C69.8179 58.3973 69.912 57.4362 69.6422 57.5882C69.5774 58.1094 69.4206 58.6406 69.2449 59.1334C69.0567 59.6626 68.9752 59.6221 69.0066 59.105C69.109 57.424 69.8388 55.4084 69.8576 53.6402C69.4708 39.235 70.3386 24.6068 69.8576 10.23C69.7635 7.42564 68.6657 4.76928 70.579 2.23459L71.52 3.04163L71.3151 1.22071C71.9299 0.914518 72.0094 1.36671 72.5656 1.41943C72.3983 0.407579 73.5358 0.581966 74.2385 0.811102V0.200748L75.8089 0.809074L76.0159 0.403523L76.5366 0.809074L76.8565 0L78.1091 1.01185L78.2157 0C79.117 0.342691 79.922 1.46404 80.3424 2.29542C81.1662 3.92168 81.4736 8.4456 81.5677 10.4348C81.9692 18.9331 81.2875 27.6991 81.3398 36.2056C81.3795 42.4632 82.1156 48.7918 81.3482 55.0515C81.2143 56.1364 80.9634 57.6775 80.4093 58.6021C80.2713 58.4034 80.1813 57.8944 80.1751 57.6572C80.127 55.0677 81.1997 52.4641 81.3586 49.7915C81.827 41.9766 81.1621 33.0098 81.1307 25.0347C81.1119 20.0687 81.0868 14.975 81.1516 10.0455C81.1537 9.84475 81.0575 9.11679 80.7229 9.12693C80.8568 13.3629 80.6163 17.5847 80.5013 21.8085C80.2733 30.1689 80.4155 38.5415 80.2922 46.9506C80.2629 48.9318 80.4678 53.5469 79.9158 55.2726C79.8321 55.5341 79.8509 55.7937 79.5686 55.966L79.462 55.157L79.1483 55.3577L78.4206 57.9958C78.2429 57.2009 78.5775 56.3533 78.6088 55.6436C78.7092 53.2833 79.3909 51.3063 79.4725 49.1852C79.5415 47.3907 79.0793 45.298 79.0375 43.5075C78.8807 36.6415 78.9371 29.4978 79.5101 22.8183L79.6732 18.3552C79.3282 18.1322 79.4453 19.3184 79.4097 19.5212C79.3784 19.7057 79.3198 20.1295 79.0438 20.0768V10.1408L79.0501 10.1388ZM79.8865 33.458V30.5177C79.8865 30.4832 79.6042 30.1994 79.4704 30.2136L79.4578 31.5417L79.8865 33.458Z" fill="#E47253"/>
<path d="M71.6457 125.477C72.1141 125.358 72.0451 124.932 72.0744 124.575C72.1769 123.346 71.8674 122.261 71.8444 121.128C71.6186 109.616 71.6478 96.679 72.271 85.2243C72.3651 83.4844 72.2166 81.7811 72.6934 80.0535L73.327 80.163L73.7452 79.1613L72.9025 79.0416V78.4333L73.5256 78.6361L74.1509 76.8131C74.7029 78.0582 73.9815 79.2039 73.9459 80.4611L74.5691 79.652L74.8848 81.0653C75.3972 80.6476 75.1295 79.9926 75.2863 79.4228C75.3951 79.0335 76.014 79.0376 75.8279 78.4333L76.4511 79.4452C76.8045 78.2467 77.39 76.2393 78.7513 76L78.7555 77.4194L79.3786 76.8131C79.8094 77.8513 79.4936 78.8064 79.3828 79.8527C79.9244 79.9561 79.7466 79.7392 79.9056 79.4573C80.2025 78.9301 80.2736 78.2792 80.5329 77.827C80.8779 77.2187 80.7838 78.1798 81.0536 78.0278C81.1184 77.5066 81.2752 76.9753 81.4509 76.4826C81.6391 75.9534 81.7206 75.9939 81.6892 76.511C81.5868 78.192 80.857 80.2076 80.8382 81.9758C81.225 96.381 80.3572 111.009 80.8382 125.386C80.9323 128.19 82.0301 130.847 80.1168 133.381L79.1758 132.574L79.3807 134.395C78.7659 134.701 78.6864 134.249 78.1302 134.197C78.2975 135.208 77.16 135.034 76.4573 134.805V135.415L74.8869 134.807L74.6799 135.212L74.1592 134.807L73.8393 135.616L72.5867 134.604L72.4801 135.616C71.5788 135.273 70.7738 134.152 70.3534 133.321C69.5296 131.694 69.2222 127.17 69.1281 125.181C68.7266 116.683 69.4083 107.917 69.356 99.4104C69.3163 93.1528 68.5802 86.8242 69.3476 80.5645C69.4815 79.4796 69.7324 77.9385 70.2865 77.0139C70.4245 77.2126 70.5145 77.7216 70.5207 77.9588C70.5688 80.5483 69.4961 83.1519 69.3372 85.8245C68.8688 93.6394 69.5337 102.606 69.5651 110.581C69.5839 115.547 69.609 120.641 69.5442 125.57C69.5421 125.771 69.6383 126.499 69.9729 126.489C69.839 122.253 70.0795 118.031 70.1945 113.807C70.4225 105.447 70.2803 97.0745 70.4036 88.6654C70.4329 86.6842 70.228 82.0691 70.78 80.3434C70.8637 80.0819 70.8449 79.8223 71.1272 79.65L71.2338 80.459L71.5475 80.2583L72.2752 77.6202C72.4529 78.4151 72.1183 79.2627 72.087 79.9724C71.9866 82.3327 71.3049 84.3097 71.2233 86.4308C71.1543 88.2253 71.6165 90.318 71.6583 92.1085C71.8151 98.9745 71.7587 106.118 71.1857 112.798L71.0226 117.261C71.3676 117.484 71.2505 116.298 71.2861 116.095C71.3174 115.91 71.376 115.486 71.652 115.539V125.475L71.6457 125.477ZM70.8093 102.158V105.098C70.8093 105.133 71.0916 105.417 71.2254 105.402L71.238 104.074L70.8093 102.158Z" fill="#E47253"/>
<path d="M139.477 69.6131C139.358 69.1651 138.932 69.2311 138.575 69.2031C137.346 69.1051 136.261 69.4011 135.128 69.4231C123.616 69.6391 110.679 69.6111 99.2245 69.0151C97.4847 68.925 95.7813 69.0671 94.0537 68.611L94.1632 68.005L93.1615 67.6049L93.0418 68.411H92.4335L92.6363 67.8149L90.8133 67.2169C92.0584 66.6888 93.2041 67.3789 94.4613 67.4129L93.6522 66.8169L95.0655 66.5148C94.6478 66.0248 93.9929 66.2808 93.4231 66.1308C93.0337 66.0268 93.0378 65.4347 92.4335 65.6128L93.4454 65.0167C92.247 64.6787 90.2395 64.1186 90.0002 62.8165L91.4196 62.8125L90.8133 62.2165C91.8515 61.8044 92.8066 62.1064 93.8529 62.2125C93.9564 61.6944 93.7394 61.8644 93.4575 61.7124C92.9303 61.4284 92.2794 61.3604 91.8272 61.1124C91.2189 60.7823 92.18 60.8723 92.028 60.6143C91.5068 60.5523 90.9756 60.4023 90.4828 60.2343C89.9536 60.0543 89.9941 59.9763 90.5112 60.0063C92.1922 60.1043 94.2078 60.8023 95.976 60.8203C110.381 60.4503 125.009 61.2804 139.386 60.8203C142.191 60.7303 144.847 59.6802 147.382 61.5104L146.575 62.4105L148.396 62.2145C148.702 62.8025 148.25 62.8785 148.197 63.4106C149.209 63.2505 149.034 64.3386 148.805 65.0107H149.415L148.807 66.5128L149.213 66.7108L148.807 67.2089L149.616 67.5149L148.604 68.713L149.616 68.815C149.274 69.6771 148.152 70.4472 147.321 70.8492C145.695 71.6373 141.171 71.9313 139.181 72.0213C130.683 72.4054 121.917 71.7533 113.411 71.8033C107.153 71.8413 100.824 72.5454 94.5647 71.8113C93.4798 71.6833 91.9387 71.4433 91.0141 70.9132C91.2128 70.7812 91.7218 70.6952 91.959 70.6892C94.5485 70.6432 97.1521 71.6693 99.8247 71.8213C107.64 72.2693 116.606 71.6333 124.582 71.6033C129.548 71.5853 134.641 71.5613 139.571 71.6233C139.771 71.6253 140.499 71.5333 140.489 71.2132C136.253 71.3413 132.032 71.1112 127.808 71.0012C119.447 70.7832 111.075 70.9192 102.666 70.8012C100.684 70.7732 96.0693 70.9692 94.3437 70.4412C94.0821 70.3612 93.8225 70.3792 93.6502 70.1091L94.4592 70.0071L94.2585 69.7071L91.6204 69.011C92.4153 68.841 93.2629 69.1611 93.9726 69.1911C96.3329 69.2871 98.31 69.9391 100.431 70.0171C102.226 70.0831 104.318 69.6411 106.109 69.6011C112.975 69.4511 120.118 69.5051 126.798 70.0531L131.261 70.2091C131.484 69.8791 130.298 69.9911 130.095 69.9571C129.91 69.9271 129.487 69.8711 129.539 69.6071H139.475L139.477 69.6131ZM116.158 70.4132H119.098C119.133 70.4132 119.417 70.1431 119.403 70.0151L118.074 70.0031L116.158 70.4132Z" fill="#E47253"/>
<path d="M10.1388 62.8029C10.2584 63.251 10.6842 63.1849 11.0411 63.2129C12.2699 63.311 13.3548 63.0149 14.4883 62.9929C25.9999 62.7769 38.937 62.8049 50.3917 63.401C52.1316 63.491 53.8349 63.349 55.5625 63.805L55.453 64.4111L56.4547 64.8111L56.5744 64.005H57.1827L56.9799 64.6011L58.8029 65.1991C57.5578 65.7272 56.4121 65.0371 55.1549 65.0031L55.964 65.5992L54.5507 65.9012C54.9684 66.3912 55.6233 66.1352 56.1931 66.2852C56.5825 66.3892 56.5784 66.9813 57.1827 66.8033L56.1708 67.3993C57.3692 67.7373 59.3767 68.2974 59.616 69.5995L58.1966 69.6035L58.8029 70.1996C57.7647 70.6116 56.8096 70.3096 55.7633 70.2036C55.6598 70.7216 55.8768 70.5516 56.1587 70.7036C56.6859 70.9876 57.3368 71.0556 57.789 71.3037C58.3973 71.6337 57.4362 71.5437 57.5882 71.8017C58.1094 71.8637 58.6406 72.0137 59.1334 72.1817C59.6626 72.3618 59.6221 72.4398 59.105 72.4097C57.424 72.3117 55.4084 71.6137 53.6402 71.5957C39.235 71.9657 24.6068 71.1356 10.23 71.5957C7.42564 71.6857 4.76928 72.7358 2.23459 70.9056L3.04163 70.0055L1.22071 70.2016C0.914518 69.6135 1.36671 69.5375 1.41943 69.0055C0.407579 69.1655 0.581966 68.0774 0.811102 67.4053H0.200748L0.809074 65.9032L0.403523 65.7052L0.809074 65.2071L0 64.9011L1.01185 63.703L0 63.601C0.342691 62.7389 1.46404 61.9688 2.29542 61.5668C3.92168 60.7787 8.4456 60.4847 10.4348 60.3947C18.9331 60.0107 27.6991 60.6627 36.2056 60.6127C42.4632 60.5747 48.7918 59.8707 55.0515 60.6047C56.1364 60.7327 57.6775 60.9728 58.6021 61.5028C58.4034 61.6348 57.8944 61.7208 57.6572 61.7268C55.0677 61.7728 52.4641 60.7467 49.7915 60.5947C41.9766 60.1467 33.0098 60.7827 25.0347 60.8127C20.0687 60.8307 14.975 60.8547 10.0455 60.7927C9.84475 60.7907 9.11679 60.8827 9.12693 61.2028C13.3629 61.0748 17.5847 61.3048 21.8085 61.4148C30.1689 61.6328 38.5415 61.4968 46.9506 61.6148C48.9318 61.6428 53.5469 61.4468 55.2726 61.9748C55.5341 62.0548 55.7937 62.0369 55.966 62.3069L55.157 62.4089L55.3577 62.7089L57.9958 63.405C57.2009 63.575 56.3533 63.255 55.6436 63.2249C53.2833 63.1289 51.3063 62.4769 49.1852 62.3989C47.3907 62.3329 45.298 62.7749 43.5075 62.8149C36.6415 62.9649 29.4978 62.9109 22.8183 62.3629L18.3552 62.2069C18.1322 62.5369 19.3184 62.4249 19.5212 62.4589C19.7057 62.4889 20.1295 62.5449 20.0768 62.8089H10.1408L10.1388 62.8029ZM33.458 62.0028H30.5177C30.4832 62.0028 30.1994 62.2729 30.2136 62.4009L31.5417 62.4129L33.458 62.0028Z" fill="#E47253"/>
</svg>
